<svg width="27" height="28" viewBox="0 0 27 28" fill="none" xmlns="http://www.w3.org/2000/svg">
<path d="M12.7057 11.2675V13.4079C11.9031 13.2072 11.368 12.7502 11.368 12.3377C11.368 11.9141 11.9031 11.4571 12.7057 11.2675Z" fill="black"/>
<path d="M15.7158 16.3509C15.7158 16.7634 15.1807 17.2204 14.3781 17.4211V15.2808C15.1807 15.4703 15.7158 15.9273 15.7158 16.3509Z" fill="black"/>
<path d="M21.2226 6.65248C19.1715 4.60133 16.4403 3.47543 13.5419 3.47543C10.6436 3.47543 7.91244 4.60133 5.86129 6.65248C3.799 8.70363 2.6731 11.4348 2.6731 14.3443C2.6731 15.7712 2.95179 17.1758 3.49802 18.5023C4.04425 19.8289 4.84687 21.0105 5.86129 22.0249C6.86457 23.0394 8.05736 23.8308 9.38392 24.3771C10.7105 24.9345 12.1039 25.2131 13.5419 25.2131C14.98 25.2131 16.3734 24.9345 17.7 24.3771C19.0265 23.8308 20.2193 23.0394 21.2226 22.0249C22.237 21.0105 23.0397 19.8289 23.5859 18.5023C24.1321 17.1758 24.4108 15.7712 24.4108 14.3443C24.4108 11.4348 23.2849 8.70363 21.2226 6.65248ZM14.378 19.1266V19.3607C14.378 19.8177 13.999 20.1967 13.5419 20.1967C13.0849 20.1967 12.7059 19.8177 12.7059 19.3607V19.1154C11.7249 18.9594 10.8554 18.5358 10.298 17.9004C10.0528 17.6105 10.0305 17.1869 10.2534 16.8748C10.4764 16.5515 10.8777 16.44 11.2344 16.5738L12.7059 17.1312V15.1023C10.9669 14.8348 9.69605 13.7089 9.69605 12.3377C9.69605 10.9554 10.9669 9.84068 12.7059 9.56199V9.32789C12.7059 8.8597 13.0849 8.49183 13.5419 8.49183C13.999 8.49183 14.378 8.8597 14.378 9.32789V9.56199C15.359 9.7292 16.2285 10.1528 16.7859 10.7771C17.0311 11.0669 17.0534 11.4905 16.8305 11.8138C16.6744 12.0367 16.418 12.1705 16.1505 12.1705C16.0501 12.1705 15.9498 12.1482 15.8495 12.1148L14.378 11.5463V13.5751C16.117 13.8426 17.3879 14.9686 17.3879 16.3508C17.3879 17.7331 16.117 18.8479 14.378 19.1266Z" fill="black"/>
</svg>
