<svg width="27" height="28" viewBox="0 0 27 28" fill="none" xmlns="http://www.w3.org/2000/svg">
<path d="M19.3179 2.96094H7.85824C6.14152 2.96094 4.73694 4.35437 4.73694 6.08224V22.1235C4.73694 23.8514 6.14152 25.256 7.85824 25.256H19.3179C21.0458 25.256 22.4392 23.8514 22.4392 22.1235V6.08224C22.4392 4.35437 21.0458 2.96094 19.3179 2.96094ZM9.00647 19.0468H18.1697C18.6379 19.0468 19.0058 19.4259 19.0058 19.8829C19.0058 20.34 18.6379 20.719 18.1697 20.719H9.00647C8.54942 20.719 8.1704 20.34 8.1704 19.8829C8.1704 19.4259 8.54942 19.0468 9.00647 19.0468ZM8.1704 14.1531C8.1704 13.696 8.54942 13.317 9.00647 13.317H18.1697C18.6379 13.317 19.0058 13.696 19.0058 14.1531C19.0058 14.6213 18.6379 14.9891 18.1697 14.9891H9.00647C8.54942 14.9891 8.1704 14.6213 8.1704 14.1531ZM18.1697 9.25929H9.00647C8.54942 9.25929 8.1704 8.89142 8.1704 8.42323C8.1704 7.96618 8.54942 7.58716 9.00647 7.58716H18.1697C18.6379 7.58716 19.0058 7.96618 19.0058 8.42323C19.0058 8.89142 18.6379 9.25929 18.1697 9.25929Z" fill="black"/>
</svg>
