<svg width="28" height="28" viewBox="0 0 28 28" fill="none" xmlns="http://www.w3.org/2000/svg">
<path d="M21.1016 3.00577H7.34554C4.99341 3.00577 3.07605 4.92314 3.07605 7.27528V21.0313C3.07605 23.3835 4.99341 25.3008 7.34554 25.3008H21.1016C23.1305 25.3008 24.8249 23.874 25.2596 21.9789C25.3265 21.8563 25.3711 21.7225 25.3711 21.5776V7.27528C25.3711 4.92314 23.4538 3.00577 21.1016 3.00577ZM21.9377 15.3015C21.9377 15.7586 21.5587 16.1376 21.1016 16.1376C20.6334 16.1376 20.2656 15.7586 20.2656 15.3015V13.0051C20.2656 12.5481 20.6334 12.169 21.1016 12.169C21.5587 12.169 21.9377 12.5481 21.9377 13.0051V15.3015ZM6.50948 15.3015V13.0051C6.50948 12.5481 6.88849 12.169 7.34554 12.169C7.81374 12.169 8.18161 12.5481 8.18161 13.0051V15.3015C8.18161 15.7586 7.81374 16.1376 7.34554 16.1376C6.88849 16.1376 6.50948 15.7586 6.50948 15.3015ZM18.4931 10.7199V17.5868C18.4931 18.0549 18.1252 18.4228 17.657 18.4228C17.2 18.4228 16.821 18.0549 16.821 17.5868V10.7199C16.821 10.2517 17.2 9.8838 17.657 9.8838C18.1252 9.8838 18.4931 10.2517 18.4931 10.7199ZM15.0597 8.42347V19.8831C15.0597 20.3402 14.6806 20.7192 14.2236 20.7192C13.7665 20.7192 13.3875 20.3402 13.3875 19.8831V8.42347C13.3875 7.96642 13.7665 7.58741 14.2236 7.58741C14.6806 7.58741 15.0597 7.96642 15.0597 8.42347ZM11.6262 10.7199V17.5868C11.6262 18.0549 11.2472 18.4228 10.7902 18.4228C10.322 18.4228 9.9541 18.0549 9.9541 17.5868V10.7199C9.9541 10.2517 10.322 9.8838 10.7902 9.8838C11.2472 9.8838 11.6262 10.2517 11.6262 10.7199Z" fill="black"/>
</svg>
